<mxfile host="app.diagrams.net" modified="2023-11-22T12:25:38.344Z" agent="Mozilla/5.0 (X11; Ubuntu; Linux x86_64; rv:109.0) Gecko/20100101 Firefox/119.0" version="22.1.3" etag="0Mu7i2ACUEPJnt4yxKlu" type="github">
  <diagram name="Page-1" id="4TbU5-jDWlx2t7Kz9J2I">
    <mxGraphModel>
      <root>
        <mxCell id="0" />
        <mxCell id="1" parent="0" />
      </root>
    </mxGraphModel>
  </diagram>
</mxfile>
